<?xml version="1.0" encoding="UTF-8" standalone="no"?>
	<svg xmlns:rdf="http://www.w3.org/1999/02/22-rdf-syntax-ns#" xmlns="http://www.w3.org/2000/svg" height="442px" width="501px" xmlns:cc="http://creativecommons.org/ns#" xmlns:xlink="http://www.w3.org/1999/xlink" xmlns:dc="http://purl.org/dc/elements/1.1/">
	<title>Freight: cargo ship 1</title>
<desc xmlns:ian_image_library="http://ian.umces.edu/imagelibrary/">
      <ian_image_library:title>Freight: cargo ship 1</ian_image_library:title>
      <ian_image_library:descr></ian_image_library:descr>
      <ian_image_library:scene>
		<ian_image_library:contains>symbol,vector,illustration,transport,industry,development,cargo,ship,economy,load,freighter,container,ship,bulk,carrier,tanker,port,trade</ian_image_library:contains>
        <ian_image_library:when>2011-04-19</ian_image_library:when> 
	  </ian_image_library:scene>
   </desc>
    <metadata
		id="metadata-iil-ab243189d18b9444613a8e5c1f1b9918">
      <rdf:RDF>
      <cc:Work
         rdf:about="">
        <dc:format>image/svg+xml</dc:format>
        <dc:type
           rdf:resource="http://purl.org/dc/dcmitype/StillImage" />
        <cc:license
           rdf:resource="http://creativecommons.org/licenses/by-sa/3.0/" />
        <dc:title>Freight: cargo ship 1</dc:title>
		<dc:date>2011-04-19</dc:date>
        <dc:creator>
			<cc:Agent>
				<dc:title>Tracey Saxby</dc:title>
			</cc:Agent>	
		</dc:creator>   
		<dc:rights>
          <cc:Agent>
            <dc:title>Tracey Saxby, Integration and Application Network</dc:title>
          </cc:Agent>
        </dc:rights>
        <dc:publisher>
          <cc:Agent>
            <dc:title>Integration and Application Network</dc:title>
          </cc:Agent>
        </dc:publisher>
		<dc:identifier>http://ian.umces.edu/imagelibrary/displayimage-6876.html</dc:identifier>
        <dc:source>http://ian.umces.edu/imagelibrary/displayimage-6876.html</dc:source>
        <dc:language>en-US</dc:language>
        <dc:subject>
          <rdf:Bag>
            <rdf:li>symbol,vector,illustration,transport,industry,development,cargo,ship,economy,load,freighter,container,ship,bulk,carrier,tanker,port,trade</rdf:li>
          </rdf:Bag>
        </dc:subject>
        <dc:coverage></dc:coverage>
        <dc:description></dc:description>
        <dc:contributor>
          <cc:Agent>
            <dc:title></dc:title>
          </cc:Agent>
        </dc:contributor>
      </cc:Work>
      <cc:License
         rdf:about="http://creativecommons.org/licenses/by-sa/3.0/">
        <cc:permits
           rdf:resource="http://creativecommons.org/ns#Reproduction" />
        <cc:permits
           rdf:resource="http://creativecommons.org/ns#Distribution" />
        <cc:requires
           rdf:resource="http://creativecommons.org/ns#Notice" />
        <cc:requires
           rdf:resource="http://creativecommons.org/ns#Attribution" />
        <cc:permits
           rdf:resource="http://creativecommons.org/ns#DerivativeWorks" />
        <cc:requires
           rdf:resource="http://creativecommons.org/ns#ShareAlike" />
      </cc:License>
    </rdf:RDF>
  </metadata>
	
<defs>
</defs>
<path fill="#D1DADF" d="M431.173,410.786c4.934-0.996,7.61-5.094,12.067-7.121c5.723-2.604,11.721-2.682,17.474-5.5
	c10.253-5.021,14.457-12.023,8.771-23.881c-5.083,0.156-9.274-2.885-9.137-8.244c-8.015-1.705-19.694,8.988-25.484,13.854
	c-6.283,5.275-11.228,14.434-8.271,22.648L431.173,410.786z"/>
<path fill="#62676A" d="M434.379,364.528c-5.496-0.916-70.529-9.617-113.124-20.609c-42.593-10.992-51.753-12.824-70.988-22.898
	C231.031,310.942,39.133,127.747,39.133,127.747l-7.787-9.16h180.448c0,0,178.913,115.189,254.522,168.994
	c20.03,14.252,32.81,31.01,33.098,32.064c1.374,5.037,0.459,9.16-4.122,15.572c-4.58,6.412-42.593,25.646-47.631,27.938
	c-2.372,1.078-4.235,1.646-6.117,1.854C439.428,365.241,437.289,365.015,434.379,364.528z"/>
<linearGradient id="ian_symbols_e920b93c86452e04cd240256ae06a569" gradientUnits="userSpaceOnUse" x1="30.1245" y1="279.1133" x2="441.4941" y2="279.1133">
	<stop  offset="0" style="stop-color:#98988F"/>
	<stop  offset="0.4061" style="stop-color:#AFABA2"/>
	<stop  offset="1" style="stop-color:#686866"/>
</linearGradient>
<path fill="url(#ian_symbols_e920b93c86452e04cd240256ae06a569)" d="M31.346,118.587l7.787,9.16c0,0,191.898,183.196,211.134,193.274
	c19.235,10.074,28.396,11.906,70.988,22.898c42.595,10.992,107.628,19.693,113.124,20.609l7.115,0.311c0,0-4.995,4.723-7.115,11.141
	c-2.415,7.311-4.58,19.691-6.412,27.936s-6.869,35.725-6.869,35.725s-23.357-5.953-33.434-10.535
	c-6.906-3.137-26.098-16.395-39.865-22.494c-43.275-19.17-104.433-41.955-121.806-53.072
	c-22.899-14.656-60.914-40.303-84.729-68.701C117.448,256.442,51.04,180.416,51.04,180.416s-6.411-22.899-11.45-30.228
	c-5.038-7.328-5.495-10.992-8.244-15.572C28.598,130.037,31.346,118.587,31.346,118.587z"/>
<polygon fill="#EDEDDF" points="51.367,61.142 58.396,67.95 58.396,77.21 51.367,70.404 "/>
<polyline fill="#2E303D" points="58.396,67.95 67.657,67.95 67.657,77.21 58.396,77.21 58.396,67.95 "/>
<polygon fill="#FAF7F1" points="58.396,67.95 51.367,61.142 60.629,61.142 67.657,67.95 "/>
<polygon fill="#575D6D" points="69.525,126.583 77.595,134.399 77.595,145.032 69.525,137.217 "/>
<polygon fill="#F37C83" points="69.525,115.947 77.595,123.763 77.595,134.399 69.525,126.583 "/>
<polygon fill="#EB816A" points="69.525,105.314 77.595,113.13 77.595,123.763 69.525,115.947 "/>
<polygon fill="#F05968" points="69.525,94.68 77.595,102.496 77.595,113.13 69.525,105.314 "/>
<polygon fill="#D4766F" points="69.525,84.046 77.595,91.862 77.595,102.496 69.525,94.68 "/>
<polyline fill="#2E303D" points="77.595,134.399 88.229,134.399 88.229,145.032 77.595,145.032 77.595,134.399 "/>
<polyline fill="#BE5A5D" points="77.595,123.763 88.229,123.763 88.229,134.399 77.595,134.399 77.595,123.763 "/>
<polyline fill="#B25744" points="77.595,113.13 88.229,113.13 88.229,123.763 77.595,123.763 77.595,113.13 "/>
<polyline fill="#901929" points="77.595,102.496 88.229,102.496 88.229,113.13 77.595,113.13 77.595,102.496 "/>
<polyline fill="#A55555" points="77.595,91.862 88.229,91.862 88.229,102.496 77.595,102.496 77.595,91.862 "/>
<polygon fill="#E97679" points="77.595,91.862 69.525,84.046 80.158,84.046 88.229,91.862 "/>
<polygon fill="#F04B5C" points="35.009,107.975 42.497,115.228 42.497,125.095 35.009,117.842 "/>
<polygon fill="#EE293D" points="35.009,98.107 42.497,105.359 42.497,115.228 35.009,107.975 "/>
<polygon fill="#EA8A74" points="35.009,88.24 42.497,95.493 42.497,105.359 35.009,98.107 "/>
<polygon fill="#EDEDDF" points="35.009,78.372 42.497,85.625 42.497,95.493 35.009,88.24 "/>
<polygon fill="#EDEDDF" points="35.009,68.505 42.497,75.758 42.497,85.625 35.009,78.372 "/>
<polyline fill="#80162B" points="42.497,115.228 52.363,115.228 52.363,125.095 42.497,125.095 42.497,115.228 "/>
<polyline fill="#901926" points="42.497,105.359 52.363,105.359 52.363,115.228 42.497,115.228 42.497,105.359 "/>
<polyline fill="#DB7D6B" points="42.497,95.493 52.363,95.493 52.363,105.359 42.497,105.359 42.497,95.493 "/>
<polyline fill="#CEB8AA" points="42.497,85.625 52.363,85.625 52.363,95.493 42.497,95.493 42.497,85.625 "/>
<polyline fill="#CEB8AA" points="42.497,75.758 52.363,75.758 52.363,85.625 42.497,85.625 42.497,75.758 "/>
<polygon fill="#FAF7F1" points="42.497,75.758 35.009,68.505 44.877,68.505 52.363,75.758 "/>
<polygon fill="#F37C83" points="58.284,67.219 65.919,74.614 65.919,86.231 58.284,78.836 "/>
<polyline fill="#BE5A5D" points="65.919,74.614 75.981,74.614 75.981,86.231 65.919,86.231 65.919,74.614 "/>
<polygon fill="#98988F" stroke="#00AEEF" stroke-width="0.1917" stroke-linecap="round" stroke-linejoin="round" stroke-miterlimit="10" points="
	65.919,74.614 58.284,67.219 68.347,67.219 75.981,74.614 "/>
<polygon fill="#EF5D6A" points="58.284,57.889 65.919,65.286 65.919,75.347 58.284,67.952 "/>
<polyline fill="#821529" points="65.919,65.286 75.981,65.286 75.981,75.347 65.919,75.347 65.919,65.286 "/>
<polygon fill="#EA7279" points="65.919,65.286 58.284,57.889 68.347,57.889 75.981,65.286 "/>
<polygon fill="#F37C83" points="70.279,73.229 77.917,80.624 77.917,92.241 70.279,84.846 "/>
<polyline fill="#BE5A5D" points="77.917,80.624 87.976,80.624 87.976,92.241 77.917,92.241 77.917,80.624 "/>
<polygon fill="#98988F" stroke="#00AEEF" stroke-width="0.1917" stroke-linecap="round" stroke-linejoin="round" stroke-miterlimit="10" points="
	77.917,80.624 70.279,73.229 80.343,73.229 87.976,80.624 "/>
<polygon fill="#EF5D6A" points="70.279,63.899 77.917,71.295 77.917,81.356 70.279,73.962 "/>
<polyline fill="#821529" points="77.917,71.295 87.976,71.295 87.976,81.356 77.917,81.356 77.917,71.295 "/>
<polygon fill="#EA7279" points="77.917,71.295 70.279,63.899 80.343,63.899 87.976,71.295 "/>
<polygon fill="#1C9DC6" points="45.134,106.679 52.767,114.075 52.767,124.137 45.134,116.742 "/>
<polygon fill="#F05968" points="45.134,96.617 52.767,104.013 52.767,114.075 45.134,106.679 "/>
<polygon fill="#F37A83" points="45.134,86.555 52.767,93.95 52.767,104.013 45.134,96.617 "/>
<polygon fill="#EDEDDF" points="45.134,76.492 52.767,83.887 52.767,93.95 45.134,86.555 "/>
<polygon fill="#B25E61" points="45.134,66.429 52.767,73.826 52.767,83.887 45.134,76.492 "/>
<polyline fill="#024467" points="52.767,114.075 62.83,114.075 62.83,124.137 52.767,124.137 52.767,114.075 "/>
<polygon fill="#F05968" points="45.134,116.753 52.767,124.149 52.767,134.21 45.134,126.815 "/>
<polyline fill="#901929" points="52.767,124.149 62.83,124.149 62.83,134.21 52.767,134.21 52.767,124.149 "/>
<polyline fill="#901929" points="52.767,104.013 62.83,104.013 62.83,114.075 52.767,114.075 52.767,104.013 "/>
<polyline fill="#BE5A5D" points="52.767,93.95 62.83,93.95 62.83,104.013 52.767,104.013 52.767,93.95 "/>
<polyline fill="#CEB8AA" points="52.767,83.887 62.83,83.887 62.83,93.95 52.767,93.95 52.767,83.887 "/>
<polyline fill="#59212C" points="52.767,73.826 62.83,73.826 62.83,83.887 52.767,83.887 52.767,73.826 "/>
<polygon fill="#B15D62" points="52.767,73.826 45.134,66.429 55.194,66.429 62.83,73.826 "/>
<polygon fill="#EE293D" points="55.763,126.131 63.952,134.062 63.952,144.853 55.763,136.922 "/>
<polygon fill="#F05968" points="55.763,115.339 63.952,123.271 63.952,134.062 55.763,126.131 "/>
<polygon fill="#F8F4F3" points="55.763,104.548 63.952,112.479 63.952,123.271 55.763,115.339 "/>
<polygon fill="#1293D1" points="55.763,93.758 63.952,101.689 63.952,112.479 55.763,104.548 "/>
<polygon fill="#F04E5A" points="55.763,82.966 63.952,90.897 63.952,101.689 55.763,93.758 "/>
<polyline fill="#85162C" points="63.952,134.062 74.742,134.062 74.742,144.853 63.952,144.853 63.952,134.062 "/>
<polyline fill="#901929" points="63.952,123.271 74.742,123.271 74.742,134.062 63.952,134.062 63.952,123.271 "/>
<polyline fill="#837E85" points="63.952,112.479 74.742,112.479 74.742,123.271 63.952,123.271 63.952,112.479 "/>
<polyline fill="#035D87" points="63.952,101.689 74.742,101.689 74.742,112.479 63.952,112.479 63.952,101.689 "/>
<polyline fill="#981B21" points="63.952,90.897 74.742,90.897 74.742,101.689 63.952,101.689 63.952,90.897 "/>
<polygon fill="#F04B56" points="63.952,90.897 55.763,82.966 66.555,82.966 74.742,90.897 "/>
<linearGradient id="ian_symbols_7f97f84e9f5e62c421160a60421b39e5" gradientUnits="userSpaceOnUse" x1="421.0977" y1="387.4287" x2="495.292" y2="387.4287">
	<stop  offset="0" style="stop-color:#222D31"/>
	<stop  offset="1" style="stop-color:#161F28"/>
</linearGradient>
<path fill="url(#ian_symbols_7f97f84e9f5e62c421160a60421b39e5)" d="M434.379,364.528c5.495,0.916,8.244,0.916,13.282-1.373c5.038-2.291,43.051-21.525,47.631-27.938
	c0,0-5.038,9.619-13.282,16.027c-8.243,6.412-19.235,13.283-25.646,19.238c-6.412,5.955-14.656,16.945-18.32,23.357
	s-16.945,45.799-16.945,45.799s2.283-27.064,4.114-35.309c1.832-8.244,5.024-19.484,5.024-25.438S434.379,364.528,434.379,364.528z"
	/>
<polygon fill="#D9D5D4" points="94.615,123.814 94.615,71.286 72.157,60.2 72.157,52.807 222.396,50.816 222.396,58.635 
	201.502,70.006 201.502,121.21 "/>
<polygon fill="#FFF9ED" points="72.157,60.2 72.157,52.807 70.31,51.386 70.31,58.777 "/>
<polygon fill="#A29D9A" points="222.396,50.816 72.157,52.807 70.31,51.386 219.508,49.832 "/>
<polygon fill="#EDE9E0" points="94.615,71.286 85.091,66.583 85.091,115.52 94.615,123.814 "/>
<rect x="114.94" y="61.479" fill="#606061" width="1.99" height="3.696"/>
<rect x="152.876" y="21.723" transform="matrix(0.9998 -0.0195 0.0195 0.9998 -0.4178 3.0096)" fill="#606061" width="2.555" height="2.417"/>
<rect x="149.31" y="21.792" transform="matrix(0.9998 -0.0193 0.0193 0.9998 -0.4156 2.9085)" fill="#606061" width="2.557" height="2.417"/>
<rect x="145.745" y="21.861" transform="matrix(0.9998 -0.0195 0.0195 0.9998 -0.4217 2.8696)" fill="#606061" width="2.556" height="2.417"/>
<rect x="124.355" y="22.274" transform="matrix(0.9998 -0.0189 0.0189 0.9998 -0.4219 2.3815)" fill="#606061" width="2.555" height="2.417"/>
<rect x="127.92" y="22.205" transform="matrix(0.9998 -0.0195 0.0195 0.9998 -0.4319 2.5232)" fill="#606061" width="2.555" height="2.417"/>
<rect x="131.484" y="22.136" transform="matrix(0.9998 -0.0191 0.0191 0.9998 -0.4216 2.5394)" fill="#606061" width="2.557" height="2.417"/>
<rect x="135.05" y="22.067" transform="matrix(0.9998 -0.0193 0.0193 0.9998 -0.4235 2.6336)" fill="#606061" width="2.557" height="2.417"/>
<rect x="138.614" y="21.998" transform="matrix(0.9998 -0.0191 0.0191 0.9998 -0.4176 2.6755)" fill="#606061" width="2.557" height="2.417"/>
<rect x="142.18" y="21.93" transform="matrix(0.9998 -0.0189 0.0189 0.9998 -0.4119 2.7171)" fill="#606061" width="2.556" height="2.417"/>
<rect x="126.895" y="61.479" fill="#606061" width="1.987" height="3.696"/>
<rect x="167.091" y="61.479" fill="#606061" width="1.992" height="3.696"/>
<rect x="179.043" y="61.479" fill="#606061" width="1.992" height="3.696"/>
<rect x="126.895" y="74.27" fill="#606061" width="1.987" height="2.416"/>
<rect x="103.428" y="88.697" fill="#606061" width="1.989" height="2.416"/>
<rect x="141.448" y="74.27" fill="#606061" width="1.991" height="2.416"/>
<rect x="152.536" y="74.27" fill="#606061" width="1.988" height="2.416"/>
<rect x="167.091" y="74.27" fill="#606061" width="1.992" height="2.416"/>
<rect x="139.712" y="61.62" fill="#606061" width="1.993" height="2.416"/>
<rect x="154.27" y="61.62" fill="#606061" width="1.99" height="2.416"/>
<path fill="#606061" d="M96.954,60.555c0-0.59,0.478-1.068,1.067-1.068h6.705c0.59,0,1.067,0.478,1.067,1.068v8.219
	c0,0.59-0.477,1.069-1.067,1.069h-6.705c-0.589,0-1.067-0.479-1.067-1.069V60.555z"/>
<path fill="#606061" d="M96.954,74.005c0-0.589,0.478-1.068,1.067-1.068h6.705c0.59,0,1.067,0.479,1.067,1.068v8.219
	c0,0.589-0.477,1.068-1.067,1.068h-6.705c-0.589,0-1.067-0.479-1.067-1.068V74.005z"/>
<path fill="#606061" d="M189.796,59.688c0-0.59,0.479-1.067,1.068-1.067h6.703c0.587,0,1.066,0.478,1.066,1.067v8.22
	c0,0.589-0.479,1.067-1.066,1.067h-6.703c-0.589,0-1.068-0.479-1.068-1.067V59.688z"/>
<path fill="#606061" d="M189.796,73.137c0-0.59,0.479-1.068,1.068-1.068h6.703c0.587,0,1.066,0.478,1.066,1.068v8.218
	c0,0.591-0.479,1.069-1.066,1.069h-6.703c-0.589,0-1.068-0.478-1.068-1.069V73.137z"/>
<polygon fill="#F9F8F4" points="101.648,42.023 101.648,50.988 105.119,52.146 105.119,43.613 "/>
<polygon fill="#DEDEDD" points="105.119,43.613 105.119,52.146 109.167,52.162 109.167,43.468 "/>
<polygon fill="#EBE9E2" points="109.167,52.162 109.167,43.468 117.41,43.541 117.41,56.05 111.987,56.05 "/>
<polygon fill="#BFBBBA" points="117.41,56.05 117.41,43.541 178.942,43.107 178.942,55.617 "/>
<polygon fill="#8C939D" points="178.942,55.617 178.942,43.107 184.8,42.095 184.8,51.421 "/>
<polygon fill="#576169" points="184.8,42.095 184.8,51.421 188.344,51.314 188.344,40.686 "/>
<polygon fill="#DEDEDD" points="188.344,40.686 184.8,42.095 178.942,43.107 117.41,43.541 109.167,43.468 105.119,43.613 
	101.648,42.023 100.706,41.552 100.706,40.25 101.648,40.721 105.119,42.312 109.167,42.167 117.41,42.24 178.942,41.806 
	184.8,40.794 188.344,39.383 "/>
<polygon fill="#A29D9A" points="188.344,39.383 184.8,40.794 178.942,41.806 117.41,42.24 109.167,42.167 105.119,42.312 
	101.648,40.721 100.706,40.25 106.023,38.03 181.188,37.209 "/>
<rect x="118.495" y="46.542" fill="#151E28" width="58.895" height="4.879"/>
<polygon fill="#151E28" points="109.925,50.988 116.327,51.421 116.327,46.542 109.925,46.108 "/>
<polygon fill="#151E28" points="183.679,50.554 180.21,51.421 180.21,46.542 183.679,45.674 "/>
<polygon fill="#86162A" points="123.811,41.119 123.811,21.27 156.349,20.619 156.349,41.01 "/>
<polygon fill="#DA596F" points="123.811,41.119 123.811,21.27 119.255,22.139 119.255,39.383 "/>
<path fill="#606061" d="M133.161,19.184v-3.723c0,0,0.618-1.241,1.932-1.311c1.309-0.069,1.93,1.311,1.93,1.311v-4.069
	c0,0,0.896-1.724,2.758-1.724c1.862,0,2.896,1.448,2.896,1.448v8.481L133.161,19.184z"/>
<rect x="156.193" y="6.633" fill="#90979F" width="0.966" height="12.413"/>
<rect x="147.366" y="5.599" fill="#FFFFFD" width="18.62" height="1.172"/>
<rect x="131.229" y="12.289" fill="#696469" width="0.966" height="6.895"/>
<rect x="126.54" y="11.254" fill="#FFFFFF" width="10.345" height="1.172"/>
<path fill="#899FAD" d="M148.414,9.664c0,0.23-0.186,0.419-0.415,0.419h-0.162c-0.229,0-0.414-0.188-0.414-0.419V8.429
	c0-0.229,0.185-0.417,0.414-0.417h0.162c0.229,0,0.415,0.188,0.415,0.417V9.664z"/>
<path fill="#899FAD" d="M146.966,5.665c0,0.23-0.187,0.417-0.419,0.417h-0.154c-0.231,0-0.42-0.187-0.42-0.417V4.43
	c0-0.231,0.188-0.417,0.42-0.417h0.154c0.232,0,0.419,0.186,0.419,0.417V5.665z"/>
<path fill="#899FAD" d="M147.865,15.063c-0.036-0.113-0.142-0.189-0.26-0.189c-0.003,0-0.003,0-0.003,0l-1.179,0.007l-0.31-3.612
	l1.366-1.186c0.086-0.076,0.117-0.196,0.076-0.305c-0.037-0.107-0.14-0.179-0.257-0.179h-1.33l-0.265-3.097l0.554-0.574
	c0.074-0.079,0.096-0.196,0.055-0.298c-0.042-0.101-0.139-0.167-0.25-0.169l-0.651-0.012l-1.836-1.959V0.91
	c0-0.151-0.123-0.276-0.276-0.276s-0.275,0.125-0.275,0.276v2.616l-1.137,2.007c-0.001,0.003-0.001,0.011-0.007,0.017
	c-0.002,0.006-0.005,0.011-0.009,0.017c-0.012,0.03-0.018,0.062-0.021,0.093c0,0,0,0.002,0,0.003c0,0,0,0,0,0.001c0,0,0,0,0,0.001
	l-0.136,13.497c-0.025,0.069-0.023,0.144,0.008,0.211c0.026,0.124,0.128,0.22,0.259,0.224l4.551,0.138c0.001,0,0.004,0,0.007,0
	c0.001,0,0.005,0,0.005,0c0.152,0,0.277-0.123,0.277-0.274c0-0.029-0.005-0.055-0.012-0.079l-0.269-3.118l1.226-0.893
	C147.861,15.3,147.901,15.176,147.865,15.063z M145.869,14.884l-3.562,0.024l0.005-0.338l3.287-2.853L145.869,14.884z
	 M145.105,5.997l0.028,0.303l-2.766,2.879l0.03-3.23L145.105,5.997z M142.355,10.151h3.108l0.075,0.886l-3.218,2.796L142.355,10.151
	z M142.3,15.459l3.616-0.023l0.05,0.565l-3.696,2.695L142.3,15.459z M146.558,10.151l-0.502,0.438l-0.039-0.438H146.558z
	 M145.414,9.599h-2.688l2.469-2.568L145.414,9.599z M142.595,5.4l0.756-1.339l1.291,1.375L142.595,5.4z M146.237,19.174
	l-3.539-0.106l3.323-2.425L146.237,19.174z M146.484,15.622l-0.013-0.19l0.277-0.001L146.484,15.622z"/>
<path fill="#2E353F" d="M141.374,23.013v18.062c0,0,1.229,0.59,2.805,0.493c1.575-0.099,2.107-0.542,2.107-0.542V23.013
	l11.084-3.377v-0.56h-27.994v0.56L141.374,23.013z"/>
<path fill="#606061" d="M103.737,14.284c-0.104-0.058-0.237-0.021-0.297,0.084l-4.586,8.179l2.434-8.325
	c0.033-0.115-0.03-0.236-0.147-0.269c-0.117-0.034-0.235,0.032-0.269,0.147l-2.488,8.509L97.694,0h-0.208l0.235,23.152l-4.937-8.992
	c-0.057-0.105-0.191-0.141-0.295-0.085c-0.104,0.058-0.144,0.189-0.084,0.293l5.326,9.702l0.278,27.261c0,0,0.415,0.262,0.726,0.21
	c0.314-0.053,0.523-0.262,0.523-0.262l-0.827-27.094l5.388-9.606C103.879,14.476,103.843,14.343,103.737,14.284z"/>
<path fill="#D1DADF" d="M0,137.343c7.124,6.374,15.452,9.994,23.356,15.318c7.842,5.28,12.674,15.088,16.026,22.895
	c3.634,8.458,4.306,17.77,9.07,25.626c5.709,9.413,15.537,16.249,21.161,25.468c5.011,8.211,2.307,19.633,7.101,26.357
	c2.209,3.1,6.28,4.5,9.111,7.078c4.355,3.969,6.102,8.93,8.538,14.061c4.451,9.373,10.841,16.412,19.68,21.426
	c2.138,1.215,19.954,11.09,8.563,12.803c3.394,12.766,22.747,13.678,32.172,18.781c4.556,2.467,8.788,5.723,11.01,10.838
	c1.661,3.828,0.664,8.961,3.623,12.133c3.654,3.922,8.822,1.809,13.327,3.16c4.984,1.494,10.227,4.91,15.085,6.914
	c9.769,4.025,19.509,9.564,29.979,10.328c9.878,0.723,20.609,0.451,30.255,2.707c8.418,1.973,13.32,8.896,20.102,13.762
	c6.047,4.34,15.003,9.396,22.765,11.699c6.053,1.793,11.498,1.49,17.424,4.559c4.34,2.246,5.408,3.211,10.241,3.867
	c7.645,1.037,18.141-0.609,25.182,2.477c7.957,3.482,11.534,12.1,18.143,16.771c3.506,2.482,8.587,1.932,13.256,3.654
	c3.818,1.408,6.57,3.742,10.97,4.625c4.49,0.9,6.945,0.746,11.02,2.678c4.087,1.939,4.863,4.512,10.276,3.686h1.832
	c3.183,0.117,8.484,1.023,10.142-1.943c4.62-8.275-6.986-5.17-9.799-6.459c-2.29-1.051-3.601-6.055-6.758-7.01
	c-3.609-1.09-8.27,1.256-11.903,1.672c-18.536,2.127-29.853-18.598-45.8-24.572c-10.239-3.834-23.074-5.34-33.91-9.066
	c-7.874-2.709-15.285-3.098-21.965-8.014c-7.455-5.484-14.606-8.139-23.407-11.699c-8.89-3.594-14.799-8.264-22.167-13.764
	c-13.703-10.234-34.785-13.621-49.28-23.975c-11.563-8.258-23.056-18.916-33.229-29.09c-24.956-24.949-56.959-33.371-76.89-64.367
	c-3.031-4.711-5.243-8.896-9.119-13.324c-3.935-4.494-9.691-15.221-13.988-19.215c-10.771-10.018-19.064-16.819-24.502-30.249
	c-2.174-5.368-3.122-10.898-5.725-16.464c-3.791-8.106-13.479-17.047-19.672-19.972C15.1,140.577,0,137.343,0,137.343z"/>
<polygon fill="#EDEDDF" points="155.458,102.21 163.74,110.231 163.74,121.142 155.458,113.123 "/>
<polyline fill="#CEB8AA" points="163.74,110.231 174.65,110.231 174.65,121.142 163.74,121.142 163.74,110.231 "/>
<polygon fill="#FAF7F1" points="163.74,110.231 155.458,102.21 166.37,102.21 174.65,110.231 "/>
<polygon fill="#EDEDDF" points="141.702,102.501 149.985,110.521 149.985,121.431 141.702,113.413 "/>
<polyline fill="#CEB8AA" points="149.985,110.521 160.894,110.521 160.894,121.431 149.985,121.431 149.985,110.521 "/>
<polygon fill="#FAF7F1" points="149.985,110.521 141.702,102.501 152.614,102.501 160.894,110.521 "/>
<polygon fill="#6C7386" points="127.047,102.501 135.329,110.521 135.329,121.431 127.047,113.413 "/>
<polyline fill="#2E303D" points="135.329,110.521 146.237,110.521 146.237,121.431 135.329,121.431 135.329,110.521 "/>
<polygon fill="#7B788E" points="135.329,110.521 127.047,102.501 137.958,102.501 146.237,110.521 "/>
<polygon fill="#EDEDDF" points="112.74,102.646 121.021,110.667 121.021,121.577 112.74,113.558 "/>
<polyline fill="#CEB8AA" points="121.021,110.667 131.93,110.667 131.93,121.577 121.021,121.577 121.021,110.667 "/>
<polygon fill="#FAF7F1" points="121.021,110.667 112.74,102.646 123.652,102.646 131.93,110.667 "/>
<polygon fill="#6C7386" points="98.083,102.646 106.365,110.667 106.365,121.577 98.083,113.558 "/>
<polyline fill="#2E303D" points="106.365,110.667 117.276,110.667 117.276,121.577 106.365,121.577 106.365,110.667 "/>
<polygon fill="#7B788E" points="106.365,110.667 98.083,102.646 108.996,102.646 117.276,110.667 "/>
<polygon fill="#F05968" points="82.543,147.615 91.182,155.984 91.182,167.368 82.543,159.001 "/>
<polygon fill="#F37C83" points="82.543,136.23 91.182,144.598 91.182,155.984 82.543,147.615 "/>
<polygon fill="#1293D1" points="82.543,124.846 91.182,133.214 91.182,144.598 82.543,136.23 "/>
<polygon fill="#F05968" points="82.543,113.462 91.182,121.829 91.182,133.214 82.543,124.846 "/>
<polygon fill="#EDEDDF" points="82.543,102.076 91.182,110.444 91.182,121.829 82.543,113.462 "/>
<polyline fill="#901929" points="91.182,155.984 102.568,155.984 102.568,167.368 91.182,167.368 91.182,155.984 "/>
<polyline fill="#BE5A5D" points="91.182,144.598 102.568,144.598 102.568,155.984 91.182,155.984 91.182,144.598 "/>
<polyline fill="#035D87" points="91.182,133.214 102.568,133.214 102.568,144.598 91.182,144.598 91.182,133.214 "/>
<polyline fill="#901929" points="91.182,121.829 102.568,121.829 102.568,133.214 91.182,133.214 91.182,121.829 "/>
<polyline fill="#CEB8AA" points="91.182,110.444 102.568,110.444 102.568,121.829 91.182,121.829 91.182,110.444 "/>
<polygon fill="#FAF7F1" points="91.182,110.444 82.543,102.076 93.929,102.076 102.568,110.444 "/>
<polygon fill="#F04E5A" points="259.706,111.306 269.193,120.495 269.193,132.996 259.706,123.808 "/>
<polyline fill="#981B21" points="269.193,120.495 281.696,120.495 281.696,132.996 269.193,132.996 269.193,120.495 "/>
<polygon fill="#F04B56" points="269.193,120.495 259.706,111.306 272.209,111.306 281.696,120.495 "/>
<polygon fill="#B25E61" points="242.657,98.194 252.211,107.451 252.211,120.043 242.657,110.787 "/>
<polyline fill="#59212C" points="252.211,107.451 264.806,107.451 264.806,120.043 252.211,120.043 252.211,107.451 "/>
<polygon fill="#B15D62" points="252.211,107.451 242.657,98.194 255.253,98.194 264.806,107.451 "/>
<polygon fill="#F04E5A" points="226.171,98.194 235.724,107.451 235.724,120.043 226.171,110.787 "/>
<polyline fill="#981B21" points="235.724,107.451 248.319,107.451 248.319,120.043 235.724,120.043 235.724,107.451 "/>
<polygon fill="#F04B56" points="235.724,107.451 226.171,98.194 238.767,98.194 248.319,107.451 "/>
<polygon fill="#EF5D6A" points="210.599,97.584 220.151,106.84 220.151,119.433 210.599,110.176 "/>
<polyline fill="#821529" points="220.151,106.84 232.747,106.84 232.747,119.433 220.151,119.433 220.151,106.84 "/>
<polygon fill="#EA7279" points="220.151,106.84 210.599,97.584 223.195,97.584 232.747,106.84 "/>
<polygon fill="#F04E5A" points="195.026,98.194 204.579,107.451 204.579,120.043 195.026,110.787 "/>
<polyline fill="#981B21" points="204.579,107.451 217.175,107.451 217.175,120.043 204.579,120.043 204.579,107.451 "/>
<polygon fill="#F04B56" points="204.579,107.451 195.026,98.194 207.622,98.194 217.175,107.451 "/>
<polygon fill="#EF5D6A" points="179.455,97.584 189.008,106.84 189.008,119.433 179.455,110.176 "/>
<polyline fill="#821529" points="189.008,106.84 201.603,106.84 201.603,119.433 189.008,119.433 189.008,106.84 "/>
<polygon fill="#EA7279" points="189.008,106.84 179.455,97.584 192.053,97.584 201.603,106.84 "/>
<polygon fill="#EDEDDF" points="126.236,114.312 134.519,122.332 134.519,133.242 126.236,125.224 "/>
<polyline fill="#2E303D" points="134.519,122.332 145.426,122.332 145.426,133.242 134.519,133.242 134.519,122.332 "/>
<polygon fill="#FAF7F1" points="134.519,122.332 126.236,114.312 137.148,114.312 145.426,122.332 "/>
<polygon fill="#6C7386" points="111.58,114.312 119.862,122.332 119.862,133.242 111.58,125.224 "/>
<polyline fill="#2E303D" points="119.862,122.332 130.771,122.332 130.771,133.242 119.862,133.242 119.862,122.332 "/>
<polygon fill="#7B788E" points="119.862,122.332 111.58,114.312 122.492,114.312 130.771,122.332 "/>
<polygon fill="#555560" points="163.812,109.827 173.347,119.059 173.347,131.625 163.812,122.391 "/>
<polygon fill="#575D6D" points="163.812,97.262 173.347,106.496 173.347,119.059 163.812,109.827 "/>
<polyline fill="#6F6D7C" points="173.347,119.059 185.908,119.059 185.908,131.625 173.347,131.625 173.347,119.059 "/>
<polyline fill="#2E303D" points="173.347,106.496 185.908,106.496 185.908,119.059 173.347,119.059 173.347,106.496 "/>
<polygon fill="#7B788E" points="173.347,106.496 163.812,97.262 176.376,97.262 185.908,106.496 "/>
<polygon fill="#891726" points="211.337,277.052 211.337,211.101 418.349,204.689 418.349,267.892 "/>
<polygon fill="#EE293D" points="147.955,121.976 157.442,131.164 157.442,143.669 147.955,134.479 "/>
<polygon fill="#B25E61" points="147.955,109.474 157.442,118.664 157.442,131.164 147.955,121.976 "/>
<polyline fill="#901926" points="157.442,131.164 169.946,131.164 169.946,143.669 157.442,143.669 157.442,131.164 "/>
<polyline fill="#59212C" points="157.442,118.664 169.946,118.664 169.946,131.164 157.442,131.164 157.442,118.664 "/>
<polygon fill="#B15D62" points="157.442,118.664 147.955,109.474 160.459,109.474 169.946,118.664 "/>
<polygon fill="#575D6D" points="96.039,159.281 104.678,167.65 104.678,179.034 96.039,170.667 "/>
<polygon fill="#F37C83" points="96.039,147.896 104.678,156.264 104.678,167.65 96.039,159.281 "/>
<polygon fill="#EB816A" points="96.039,136.512 104.678,144.88 104.678,156.264 96.039,147.896 "/>
<polygon fill="#F05968" points="96.039,125.127 104.678,133.494 104.678,144.88 96.039,136.512 "/>
<polygon fill="#D4766F" points="96.039,113.741 104.678,122.109 104.678,133.494 96.039,125.127 "/>
<polyline fill="#2E303D" points="104.678,167.65 116.065,167.65 116.065,179.034 104.678,179.034 104.678,167.65 "/>
<polyline fill="#BE5A5D" points="104.678,156.264 116.065,156.264 116.065,167.65 104.678,167.65 104.678,156.264 "/>
<polyline fill="#B25744" points="104.678,144.88 116.065,144.88 116.065,156.264 104.678,156.264 104.678,144.88 "/>
<polyline fill="#901929" points="104.678,133.494 116.065,133.494 116.065,144.88 104.678,144.88 104.678,133.494 "/>
<polyline fill="#A55555" points="104.678,122.109 116.065,122.109 116.065,133.494 104.678,133.494 104.678,122.109 "/>
<polygon fill="#E97679" points="104.678,122.109 96.039,113.741 107.425,113.741 116.065,122.109 "/>
<polygon fill="#F04B5C" points="106.961,169.491 115.783,178.036 115.783,189.661 106.961,181.117 "/>
<polygon fill="#EE293D" points="106.961,157.863 115.783,166.409 115.783,178.036 106.961,169.491 "/>
<polygon fill="#EA8A74" points="106.961,146.238 115.783,154.783 115.783,166.409 106.961,157.863 "/>
<polygon fill="#EDEDDF" points="106.961,134.612 115.783,143.157 115.783,154.783 106.961,146.238 "/>
<polygon fill="#EDEDDF" points="106.961,122.986 115.783,131.532 115.783,143.157 106.961,134.612 "/>
<polyline fill="#80162B" points="115.783,178.036 127.409,178.036 127.409,189.661 115.783,189.661 115.783,178.036 "/>
<polyline fill="#901926" points="115.783,166.409 127.409,166.409 127.409,178.036 115.783,178.036 115.783,166.409 "/>
<polyline fill="#DB7D6B" points="115.783,154.783 127.409,154.783 127.409,166.409 115.783,166.409 115.783,154.783 "/>
<polyline fill="#CEB8AA" points="115.783,143.157 127.409,143.157 127.409,154.783 115.783,154.783 115.783,143.157 "/>
<polyline fill="#CEB8AA" points="115.783,131.532 127.409,131.532 127.409,143.157 115.783,143.157 115.783,131.532 "/>
<polygon fill="#FAF7F1" points="115.783,131.532 106.961,122.986 118.588,122.986 127.409,131.532 "/>
<polygon fill="#F37C83" points="134.384,121.471 143.38,130.185 143.38,143.872 134.384,135.159 "/>
<polyline fill="#BE5A5D" points="143.38,130.185 155.235,130.185 155.235,143.872 143.38,143.872 143.38,130.185 "/>
<polygon fill="#98988F" stroke="#00AEEF" stroke-width="0.2259" stroke-linecap="round" stroke-linejoin="round" stroke-miterlimit="10" points="
	143.38,130.185 134.384,121.471 146.239,121.471 155.235,130.185 "/>
<polygon fill="#EF5D6A" points="134.384,110.479 143.38,119.192 143.38,131.048 134.384,122.335 "/>
<polyline fill="#821529" points="143.38,119.192 155.235,119.192 155.235,131.048 143.38,131.048 143.38,119.192 "/>
<polygon fill="#EA7279" points="143.38,119.192 134.384,110.479 146.239,110.479 155.235,119.192 "/>
<polygon fill="#F04E5A" points="272.528,125.962 282.017,135.151 282.017,147.651 272.528,138.464 "/>
<polyline fill="#981B21" points="282.017,135.151 294.52,135.151 294.52,147.651 282.017,147.651 282.017,135.151 "/>
<polygon fill="#F04B56" points="282.017,135.151 272.528,125.962 285.033,125.962 294.52,135.151 "/>
<polygon fill="#C98A85" points="255.481,138.037 265.034,147.293 265.034,159.887 255.481,150.63 "/>
<polygon fill="#F37C83" points="255.481,125.443 265.034,134.699 265.034,147.293 255.481,138.037 "/>
<polygon fill="#B25E61" points="255.481,112.849 265.034,122.106 265.034,134.699 255.481,125.443 "/>
<polyline fill="#BE3941" points="265.034,147.293 277.629,147.293 277.629,159.887 265.034,159.887 265.034,147.293 "/>
<polyline fill="#BE5A5D" points="265.034,134.699 277.629,134.699 277.629,147.293 265.034,147.293 265.034,134.699 "/>
<polyline fill="#59212C" points="265.034,122.106 277.629,122.106 277.629,134.699 265.034,134.699 265.034,122.106 "/>
<polygon fill="#B15D62" points="265.034,122.106 255.481,112.849 268.078,112.849 277.629,122.106 "/>
<polygon fill="#C98A85" points="238.995,127.045 248.548,136.301 248.548,148.895 238.995,139.638 "/>
<polygon fill="#F37C83" points="238.995,114.451 248.548,123.708 248.548,136.301 238.995,127.045 "/>
<polygon fill="#F04E5A" points="238.995,101.858 248.548,111.115 248.548,123.708 238.995,114.451 "/>
<polyline fill="#BE3941" points="248.548,136.301 261.142,136.301 261.142,148.895 248.548,148.895 248.548,136.301 "/>
<polyline fill="#BE5A5D" points="248.548,123.708 261.142,123.708 261.142,136.301 248.548,136.301 248.548,123.708 "/>
<polyline fill="#981B21" points="248.548,111.115 261.142,111.115 261.142,123.708 248.548,123.708 248.548,111.115 "/>
<polygon fill="#F04B56" points="248.548,111.115 238.995,101.858 251.59,101.858 261.142,111.115 "/>
<polygon fill="#F15B65" points="223.423,125.212 232.976,134.469 232.976,147.063 223.423,137.807 "/>
<polygon fill="#1293D1" points="223.423,112.619 232.976,121.875 232.976,134.469 223.423,125.212 "/>
<polygon fill="#EF5D6A" points="223.423,100.025 232.976,109.282 232.976,121.875 223.423,112.619 "/>
<polyline fill="#85162C" points="232.976,134.469 245.569,134.469 245.569,147.063 232.976,147.063 232.976,134.469 "/>
<polyline fill="#035D87" points="232.976,121.875 245.569,121.875 245.569,134.469 232.976,134.469 232.976,121.875 "/>
<polyline fill="#821529" points="232.976,109.282 245.569,109.282 245.569,121.875 232.976,121.875 232.976,109.282 "/>
<polygon fill="#EA7279" points="232.976,109.282 223.423,100.025 236.019,100.025 245.569,109.282 "/>
<polygon fill="#F8F4F3" points="207.851,125.212 217.403,134.469 217.403,147.063 207.851,137.807 "/>
<polygon fill="#F37C83" points="207.851,112.619 217.403,121.875 217.403,134.469 207.851,125.212 "/>
<polygon fill="#575D6D" points="207.851,100.025 217.403,109.282 217.403,121.875 207.851,112.619 "/>
<polyline fill="#837E85" points="217.403,134.469 229.998,134.469 229.998,147.063 217.403,147.063 217.403,134.469 "/>
<polyline fill="#BE5A5D" points="217.403,121.875 229.998,121.875 229.998,134.469 217.403,134.469 217.403,121.875 "/>
<polyline fill="#2E303D" points="217.403,109.282 229.998,109.282 229.998,121.875 217.403,121.875 217.403,109.282 "/>
<polygon fill="#7B788E" points="217.403,109.282 207.851,100.025 220.446,100.025 229.998,109.282 "/>
<polygon fill="#EF5D6A" points="230.054,112.565 240.338,122.531 240.338,136.088 230.054,126.123 "/>
<polyline fill="#752532" points="240.338,122.531 253.898,122.531 253.898,136.088 240.338,136.088 240.338,122.531 "/>
<polygon fill="#E97679" points="240.338,122.531 230.054,112.565 243.614,112.565 253.898,122.531 "/>
<polygon fill="#F8F4F3" points="213.289,111.25 223.574,121.215 223.574,134.773 213.289,124.808 "/>
<polyline fill="#6F6D7C" points="223.574,121.215 237.132,121.215 237.132,134.773 223.574,134.773 223.574,121.215 "/>
<polygon fill="#E7E2E6" points="223.574,121.215 213.289,111.25 226.85,111.25 237.132,121.215 "/>
<polygon fill="#EF5D6A" points="192.278,112.24 201.831,121.496 201.831,134.089 192.278,124.833 "/>
<polyline fill="#821529" points="201.831,121.496 214.426,121.496 214.426,134.089 201.831,134.089 201.831,121.496 "/>
<polygon fill="#EA7279" points="201.831,121.496 192.278,112.24 204.875,112.24 214.426,121.496 "/>
<polygon fill="#F04E5A" points="176.636,111.917 186.171,121.152 186.171,133.715 176.636,124.483 "/>
<polyline fill="#981B21" points="186.171,121.152 198.731,121.152 198.731,133.715 186.171,133.715 186.171,121.152 "/>
<polygon fill="#F04B56" points="186.171,121.152 176.636,111.917 189.199,111.917 198.731,121.152 "/>
<polygon fill="#EE293D" points="160.779,124.129 170.267,133.318 170.267,145.819 160.779,136.632 "/>
<polyline fill="#901926" points="170.267,133.318 182.769,133.318 182.769,145.819 170.267,145.819 170.267,133.318 "/>
<polygon fill="#F04B56" points="170.267,133.318 160.779,124.129 173.282,124.129 182.769,133.318 "/>
<polygon fill="#EE293D" points="297.577,150.801 307.791,160.693 307.791,174.157 297.577,164.261 "/>
<polygon fill="#F04E5A" points="297.577,137.341 307.791,147.234 307.791,160.693 297.577,150.801 "/>
<polyline fill="#901926" points="307.791,160.693 321.254,160.693 321.254,174.157 307.791,174.157 307.791,160.693 "/>
<polyline fill="#981B21" points="307.791,147.234 321.254,147.234 321.254,160.693 307.791,160.693 307.791,147.234 "/>
<polygon fill="#F04B56" points="307.791,147.234 297.577,137.341 311.038,137.341 321.254,147.234 "/>
<polygon fill="#98988F" stroke="#00AEEF" stroke-width="0.2409" stroke-linecap="round" stroke-linejoin="round" stroke-miterlimit="10" points="
	283.134,150.898 292.731,160.19 292.731,172.838 283.134,163.542 "/>
<polygon fill="#D8D6D0" points="283.134,138.251 292.731,147.546 292.731,160.19 283.134,150.898 "/>
<polyline fill="#035D87" points="292.731,160.19 305.376,160.19 305.376,172.838 292.731,172.838 292.731,160.19 "/>
<polyline fill="#6F6D7C" points="292.731,147.546 305.376,147.546 305.376,160.19 292.731,160.19 292.731,147.546 "/>
<polygon fill="#CBC3C2" points="292.731,147.546 283.134,138.251 295.781,138.251 305.376,147.546 "/>
<polygon fill="#F37C83" points="264.57,138.614 274.853,148.581 274.853,162.139 264.57,152.173 "/>
<polygon fill="#B25E61" points="264.57,125.056 274.853,135.022 274.853,148.581 264.57,138.614 "/>
<polyline fill="#BE5A5D" points="274.853,148.581 288.414,148.581 288.414,162.139 274.853,162.139 274.853,148.581 "/>
<polyline fill="#59212C" points="274.853,135.022 288.414,135.022 288.414,148.581 274.853,148.581 274.853,135.022 "/>
<polygon fill="#B15D62" points="274.853,135.022 264.57,125.056 278.129,125.056 288.414,135.022 "/>
<polygon fill="#D8D6D0" points="246.818,126.046 257.104,136.011 257.104,149.57 246.818,139.604 "/>
<polyline fill="#837E85" points="257.104,136.011 270.663,136.011 270.663,149.57 257.104,149.57 257.104,136.011 "/>
<polygon fill="#E7E2E6" points="257.104,136.011 246.818,126.046 260.38,126.046 270.663,136.011 "/>
<polygon fill="#D8D6D0" points="196.524,124.399 206.813,134.365 206.813,147.922 196.524,137.958 "/>
<polyline fill="#6F6D7C" points="206.813,134.365 220.367,134.365 220.367,147.922 206.813,147.922 206.813,134.365 "/>
<polygon fill="#CBC3C2" points="206.813,134.365 196.524,124.399 210.085,124.399 220.367,134.365 "/>
<polygon fill="#555560" points="179.682,137.582 189.947,147.521 189.947,161.048 179.682,151.106 "/>
<polygon fill="#F04E5A" points="179.682,124.054 189.947,133.995 189.947,147.521 179.682,137.582 "/>
<polyline fill="#6F6D7C" points="189.947,147.521 203.474,147.521 203.474,161.048 189.947,161.048 189.947,147.521 "/>
<polyline fill="#981B21" points="189.947,133.995 203.474,133.995 203.474,147.521 189.947,147.521 189.947,133.995 "/>
<polygon fill="#F04B56" points="189.947,133.995 179.682,124.054 193.207,124.054 203.474,133.995 "/>
<polygon fill="#EE293D" points="162.611,150.662 172.827,160.554 172.827,174.016 162.611,164.122 "/>
<polygon fill="#B25E61" points="162.611,137.2 172.827,147.093 172.827,160.554 162.611,150.662 "/>
<polyline fill="#901926" points="172.827,160.554 186.287,160.554 186.287,174.016 172.827,174.016 172.827,160.554 "/>
<polyline fill="#59212C" points="172.827,147.093 186.287,147.093 186.287,160.554 172.827,160.554 172.827,147.093 "/>
<polygon fill="#B15D62" points="172.827,147.093 162.611,137.2 176.074,137.2 186.287,147.093 "/>
<polygon fill="#F37C83" points="147.208,123.302 156.205,132.017 156.205,145.703 147.208,136.991 "/>
<polyline fill="#BE5A5D" points="156.205,132.017 168.059,132.017 168.059,145.703 156.205,145.703 156.205,132.017 "/>
<polygon fill="#98988F" stroke="#00AEEF" stroke-width="0.2259" stroke-linecap="round" stroke-linejoin="round" stroke-miterlimit="10" points="
	156.205,132.017 147.208,123.302 159.063,123.302 168.059,132.017 "/>
<polygon fill="#EF5D6A" points="147.208,112.312 156.205,121.024 156.205,132.879 147.208,124.167 "/>
<polyline fill="#821529" points="156.205,121.024 168.059,121.024 168.059,132.879 156.205,132.879 156.205,121.024 "/>
<polygon fill="#EA7279" points="156.205,121.024 147.208,112.312 159.063,112.312 168.059,121.024 "/>
<polygon fill="#1C9DC6" points="118.888,167.964 127.886,176.677 127.886,188.531 118.888,179.82 "/>
<polygon fill="#F05968" points="118.888,156.108 127.886,164.821 127.886,176.677 118.888,167.964 "/>
<polygon fill="#F37A83" points="118.888,144.252 127.886,152.966 127.886,164.821 118.888,156.108 "/>
<polygon fill="#EDEDDF" points="118.888,132.397 127.886,141.11 127.886,152.966 118.888,144.252 "/>
<polygon fill="#B25E61" points="118.888,120.542 127.886,129.255 127.886,141.11 118.888,132.397 "/>
<polyline fill="#024467" points="127.886,176.677 139.74,176.677 139.74,188.531 127.886,188.531 127.886,176.677 "/>
<polygon fill="#F05968" points="118.888,179.832 127.886,188.546 127.886,200.401 118.888,191.688 "/>
<polyline fill="#901929" points="127.886,188.546 139.74,188.546 139.74,200.401 127.886,200.401 127.886,188.546 "/>
<polyline fill="#901929" points="127.886,164.821 139.74,164.821 139.74,176.677 127.886,176.677 127.886,164.821 "/>
<polyline fill="#BE5A5D" points="127.886,152.966 139.74,152.966 139.74,164.821 127.886,164.821 127.886,152.966 "/>
<polyline fill="#CEB8AA" points="127.886,141.11 139.74,141.11 139.74,152.966 127.886,152.966 127.886,141.11 "/>
<polyline fill="#59212C" points="127.886,129.255 139.74,129.255 139.74,141.11 127.886,141.11 127.886,129.255 "/>
<polygon fill="#B15D62" points="127.886,129.255 118.888,120.542 130.745,120.542 139.74,129.255 "/>
<polygon fill="#616E76" points="146.628,150.826 156.791,160.669 156.791,174.064 146.628,164.22 "/>
<polygon fill="#575D6D" points="146.628,137.432 156.791,147.276 156.791,160.669 146.628,150.826 "/>
<polyline fill="#837E85" points="156.791,160.669 170.184,160.669 170.184,174.064 156.791,174.064 156.791,160.669 "/>
<polyline fill="#2E303D" points="156.791,147.276 170.184,147.276 170.184,160.669 156.791,160.669 156.791,147.276 "/>
<polygon fill="#7B788E" points="156.791,147.276 146.628,137.432 160.021,137.432 170.184,147.276 "/>
<polygon fill="#EE293D" points="162.611,177.225 172.827,187.118 172.827,200.58 162.611,190.685 "/>
<polygon fill="#B25E61" points="162.611,163.763 172.827,173.656 172.827,187.118 162.611,177.225 "/>
<polyline fill="#901926" points="172.827,187.118 186.287,187.118 186.287,200.58 172.827,200.58 172.827,187.118 "/>
<polyline fill="#59212C" points="172.827,173.656 186.287,173.656 186.287,187.118 172.827,187.118 172.827,173.656 "/>
<polygon fill="#B15D62" points="172.827,173.656 162.611,163.763 176.074,163.763 186.287,173.656 "/>
<polygon fill="#EE293D" points="312.836,171.372 324.328,182.503 324.328,197.653 312.836,186.52 "/>
<polygon fill="#6C7386" points="312.836,156.224 324.328,167.358 324.328,182.503 312.836,171.372 "/>
<polyline fill="#901926" points="324.328,182.503 339.479,182.503 339.479,197.653 324.328,197.653 324.328,182.503 "/>
<polyline fill="#981B21" points="324.328,167.358 339.479,167.358 339.479,182.503 324.328,182.503 324.328,167.358 "/>
<polygon fill="#7B788E" points="324.328,167.358 312.836,156.224 327.984,156.224 339.479,167.358 "/>
<polygon fill="#98988F" stroke="#00AEEF" stroke-width="0.2712" stroke-linecap="round" stroke-linejoin="round" stroke-miterlimit="10" points="
	296.581,171.481 307.381,181.939 307.381,196.172 296.581,185.71 "/>
<polygon fill="#D8D6D0" points="296.581,157.249 307.381,167.708 307.381,181.939 296.581,171.481 "/>
<polyline fill="#035D87" points="307.381,181.939 321.612,181.939 321.612,196.172 307.381,196.172 307.381,181.939 "/>
<polyline fill="#6F6D7C" points="307.381,167.708 321.612,167.708 321.612,181.939 307.381,181.939 307.381,167.708 "/>
<polygon fill="#CBC3C2" points="307.381,167.708 296.581,157.249 310.814,157.249 321.612,167.708 "/>
<polygon fill="#C98A85" points="275.69,172.915 287.262,184.13 287.262,199.388 275.69,188.173 "/>
<polygon fill="#F37C83" points="275.69,157.658 287.262,168.874 287.262,184.13 275.69,172.915 "/>
<polygon fill="#B25E61" points="275.69,142.4 287.262,153.615 287.262,168.874 275.69,157.658 "/>
<polyline fill="#BE3941" points="287.262,184.13 302.524,184.13 302.524,199.388 287.262,199.388 287.262,184.13 "/>
<polyline fill="#BE5A5D" points="287.262,168.874 302.524,168.874 302.524,184.13 287.262,184.13 287.262,168.874 "/>
<polyline fill="#59212C" points="287.262,153.615 302.524,153.615 302.524,168.874 287.262,168.874 287.262,153.615 "/>
<polygon fill="#B15D62" points="287.262,153.615 275.69,142.4 290.947,142.4 302.524,153.615 "/>
<polygon fill="#C98A85" points="255.712,174.029 267.288,185.245 267.288,200.502 255.712,189.288 "/>
<polygon fill="#F37C83" points="255.712,158.771 267.288,169.985 267.288,185.245 255.712,174.029 "/>
<polygon fill="#D8D6D0" points="255.712,143.514 267.288,154.728 267.288,169.985 255.712,158.771 "/>
<polyline fill="#BE3941" points="267.288,185.245 282.548,185.245 282.548,200.502 267.288,200.502 267.288,185.245 "/>
<polyline fill="#BE5A5D" points="267.288,169.985 282.548,169.985 282.548,185.245 267.288,185.245 267.288,169.985 "/>
<polyline fill="#837E85" points="267.288,154.728 282.548,154.728 282.548,169.985 267.288,169.985 267.288,154.728 "/>
<polygon fill="#E7E2E6" points="267.288,154.728 255.712,143.514 270.975,143.514 282.548,154.728 "/>
<polygon fill="#F15B65" points="236.847,158.858 248.423,170.073 248.423,185.331 236.847,174.118 "/>
<polygon fill="#1293D1" points="236.847,143.6 248.423,154.815 248.423,170.073 236.847,158.858 "/>
<polygon fill="#EF5D6A" points="236.847,128.345 248.423,139.557 248.423,154.815 236.847,143.6 "/>
<polyline fill="#85162C" points="248.423,170.073 263.68,170.073 263.68,185.331 248.423,185.331 248.423,170.073 "/>
<polyline fill="#035D87" points="248.423,154.815 263.68,154.815 263.68,170.073 248.423,170.073 248.423,154.815 "/>
<polyline fill="#752532" points="248.423,139.557 263.68,139.557 263.68,154.815 248.423,154.815 248.423,139.557 "/>
<polygon fill="#E97679" points="248.423,139.557 236.847,128.345 252.106,128.345 263.68,139.557 "/>
<polygon fill="#F8F4F3" points="217.981,157.378 229.555,168.594 229.555,183.851 217.981,172.637 "/>
<polygon fill="#F37C83" points="217.981,142.12 229.555,153.334 229.555,168.594 217.981,157.378 "/>
<polygon fill="#F8F4F3" points="217.981,126.863 229.555,138.077 229.555,153.334 217.981,142.12 "/>
<polyline fill="#837E85" points="229.555,168.594 244.813,168.594 244.813,183.851 229.555,183.851 229.555,168.594 "/>
<polyline fill="#BE5A5D" points="229.555,153.334 244.813,153.334 244.813,168.594 229.555,168.594 229.555,153.334 "/>
<polyline fill="#6F6D7C" points="229.555,138.077 244.813,138.077 244.813,153.334 229.555,153.334 229.555,138.077 "/>
<polygon fill="#E7E2E6" points="229.555,138.077 217.981,126.863 233.242,126.863 244.813,138.077 "/>
<polygon fill="#F15B65" points="199.115,172.177 210.691,183.39 210.691,198.65 199.115,187.434 "/>
<polygon fill="#F37C83" points="199.115,156.917 210.691,168.133 210.691,183.39 199.115,172.177 "/>
<polygon fill="#EF5D6A" points="199.115,141.662 210.691,152.875 210.691,168.133 199.115,156.917 "/>
<polyline fill="#85162C" points="210.691,183.39 225.948,183.39 225.948,198.65 210.691,198.65 210.691,183.39 "/>
<polyline fill="#BE5A5D" points="210.691,168.133 225.948,168.133 225.948,183.39 210.691,183.39 210.691,168.133 "/>
<polyline fill="#821529" points="210.691,152.875 225.948,152.875 225.948,168.133 210.691,168.133 210.691,152.875 "/>
<polygon fill="#EA7279" points="210.691,152.875 199.115,141.662 214.374,141.662 225.948,152.875 "/>
<polygon fill="#1293D1" points="180.162,186.371 191.713,197.559 191.713,212.781 180.162,201.594 "/>
<polygon fill="#555560" points="180.162,171.15 191.713,182.335 191.713,197.559 180.162,186.371 "/>
<polygon fill="#EE293D" points="180.162,155.927 191.713,167.115 191.713,182.335 180.162,171.15 "/>
<polyline fill="#035D87" points="191.713,197.559 206.934,197.559 206.934,212.781 191.713,212.781 191.713,197.559 "/>
<polyline fill="#6F6D7C" points="191.713,182.335 206.934,182.335 206.934,197.559 191.713,197.559 191.713,182.335 "/>
<polyline fill="#981B21" points="191.713,167.115 206.934,167.115 206.934,182.335 191.713,182.335 191.713,167.115 "/>
<polygon fill="#F04B56" points="191.713,167.115 180.162,155.927 195.383,155.927 206.934,167.115 "/>
<polygon fill="#EE293D" points="131.414,190.881 141.062,200.226 141.062,212.939 131.414,203.596 "/>
<polygon fill="#F05968" points="131.414,178.166 141.062,187.512 141.062,200.226 131.414,190.881 "/>
<polygon fill="#F8F4F3" points="131.414,165.453 141.062,174.797 141.062,187.512 131.414,178.166 "/>
<polygon fill="#1293D1" points="131.414,152.738 141.062,162.083 141.062,174.797 131.414,165.453 "/>
<polygon fill="#F04E5A" points="131.414,140.024 141.062,149.369 141.062,162.083 131.414,152.738 "/>
<polyline fill="#85162C" points="141.062,200.226 153.775,200.226 153.775,212.939 141.062,212.939 141.062,200.226 "/>
<polyline fill="#901929" points="141.062,187.512 153.775,187.512 153.775,200.226 141.062,200.226 141.062,187.512 "/>
<polyline fill="#837E85" points="141.062,174.797 153.775,174.797 153.775,187.512 141.062,187.512 141.062,174.797 "/>
<polyline fill="#035D87" points="141.062,162.083 153.775,162.083 153.775,174.797 141.062,174.797 141.062,162.083 "/>
<polyline fill="#981B21" points="141.062,149.369 153.775,149.369 153.775,162.083 141.062,162.083 141.062,149.369 "/>
<polygon fill="#F04B56" points="141.062,149.369 131.414,140.024 144.128,140.024 153.775,149.369 "/>
<polygon fill="#F8F4F3" points="144.695,203.369 154.789,213.144 154.789,226.444 144.695,216.668 "/>
<polygon fill="#F05968" points="144.695,190.07 154.789,199.844 154.789,213.144 144.695,203.369 "/>
<polygon fill="#1C9DC6" points="144.695,176.77 154.789,186.543 154.789,199.844 144.695,190.07 "/>
<polygon fill="#EB816A" points="144.695,163.471 154.789,173.245 154.789,186.543 144.695,176.77 "/>
<polyline fill="#837E85" points="154.789,213.144 168.085,213.144 168.085,226.444 154.789,226.444 154.789,213.144 "/>
<polyline fill="#901929" points="154.789,199.844 168.085,199.844 168.085,213.144 154.789,213.144 154.789,199.844 "/>
<polyline fill="#024467" points="154.789,186.543 168.085,186.543 168.085,199.844 154.789,199.844 154.789,186.543 "/>
<polyline fill="#B25744" points="154.789,173.245 168.085,173.245 168.085,186.543 154.789,186.543 154.789,173.245 "/>
<polygon fill="#EA876C" points="154.789,173.245 144.695,163.471 157.995,163.471 168.085,173.245 "/>
<polygon fill="#98988F" stroke="#00AEEF" stroke-width="0.3033" stroke-linecap="round" stroke-linejoin="round" stroke-miterlimit="10" points="
	196.176,230.157 208.254,241.856 208.254,257.772 196.176,246.073 "/>
<polygon fill="#555560" points="196.176,214.242 208.254,225.937 208.254,241.856 196.176,230.157 "/>
<polygon fill="#575D6D" points="196.176,198.325 208.254,210.023 208.254,225.937 196.176,214.242 "/>
<polyline fill="#98988F" stroke="#00AEEF" stroke-width="0.3033" stroke-linecap="round" stroke-linejoin="round" stroke-miterlimit="10" points="
	208.254,241.856 224.167,241.856 224.167,257.772 208.254,257.772 208.254,241.856 "/>
<polyline fill="#6F6D7C" points="208.254,225.937 224.167,225.937 224.167,241.856 208.254,241.856 208.254,225.937 "/>
<polyline fill="#2E303D" points="208.254,210.023 224.167,210.023 224.167,225.937 208.254,225.937 208.254,210.023 "/>
<polygon fill="#7B788E" points="208.254,210.023 196.176,198.325 212.092,198.325 224.167,210.023 "/>
<polygon fill="#C98A85" points="160.05,215.214 171.528,226.335 171.528,241.462 160.05,230.343 "/>
<polygon fill="#F37A83" points="160.05,200.087 171.528,211.205 171.528,226.335 160.05,215.214 "/>
<polygon fill="#E86D72" points="160.05,184.96 171.528,196.077 171.528,211.205 160.05,200.087 "/>
<polyline fill="#BE3941" points="171.528,226.335 186.653,226.335 186.653,241.462 171.528,241.462 171.528,226.335 "/>
<polyline fill="#BE5A5D" points="171.528,211.205 186.653,211.205 186.653,226.335 171.528,226.335 171.528,211.205 "/>
<polyline fill="#752532" points="171.528,196.077 186.653,196.077 186.653,211.205 171.528,211.205 171.528,196.077 "/>
<polygon fill="#E97679" points="171.528,196.077 160.05,184.96 175.178,184.96 186.653,196.077 "/>
<polygon fill="#F15B65" points="177.012,230.319 188.956,241.892 188.956,257.63 177.012,246.062 "/>
<polygon fill="#F37C83" points="177.012,214.579 188.956,226.147 188.956,241.892 177.012,230.319 "/>
<polygon fill="#EF5D6A" points="177.012,198.84 188.956,210.41 188.956,226.147 177.012,214.579 "/>
<polyline fill="#85162C" points="188.956,241.892 204.697,241.892 204.697,257.63 188.956,257.63 188.956,241.892 "/>
<polyline fill="#BE5A5D" points="188.956,226.147 204.697,226.147 204.697,241.892 188.956,241.892 188.956,226.147 "/>
<polyline fill="#821529" points="188.956,210.41 204.697,210.41 204.697,226.147 188.956,226.147 188.956,210.41 "/>
<polygon fill="#EA7279" points="188.956,210.41 177.012,198.84 192.754,198.84 204.697,210.41 "/>
<polygon fill="#F15B65" points="423.669,230.595 436.16,242.694 436.16,259.159 423.669,247.058 "/>
<polygon fill="#F37C83" points="423.669,214.131 436.16,226.229 436.16,242.694 423.669,230.595 "/>
<polygon fill="#C8C5C9" points="423.669,197.668 436.16,209.769 436.16,226.229 423.669,214.131 "/>
<polyline fill="#85162C" points="436.16,242.694 452.622,242.694 452.622,259.159 436.16,259.159 436.16,242.694 "/>
<polyline fill="#BE5A5D" points="436.16,226.229 452.622,226.229 452.622,242.694 436.16,242.694 436.16,226.229 "/>
<polyline fill="#837E85" points="436.16,209.769 452.622,209.769 452.622,226.229 436.16,226.229 436.16,209.769 "/>
<polygon fill="#E7E2E6" points="436.16,209.769 423.669,197.668 440.134,197.668 452.622,209.769 "/>
<polygon fill="#F15B65" points="403.516,230.595 416.007,242.694 416.007,259.159 403.516,247.058 "/>
<polygon fill="#F37C83" points="403.516,214.131 416.007,226.229 416.007,242.694 403.516,230.595 "/>
<polygon fill="#EF5D6A" points="403.516,197.668 416.007,209.769 416.007,226.229 403.516,214.131 "/>
<polyline fill="#85162C" points="416.007,242.694 432.47,242.694 432.47,259.159 416.007,259.159 416.007,242.694 "/>
<polyline fill="#BE5A5D" points="416.007,226.229 432.47,226.229 432.47,242.694 416.007,242.694 416.007,226.229 "/>
<polyline fill="#821529" points="416.007,209.769 432.47,209.769 432.47,226.229 416.007,226.229 416.007,209.769 "/>
<polygon fill="#EA7279" points="416.007,209.769 403.516,197.668 419.98,197.668 432.47,209.769 "/>
<polygon fill="#1293D1" points="194.874,245.659 207.58,257.966 207.58,274.714 194.874,262.405 "/>
<polygon fill="#F8F4F3" points="194.874,228.915 207.58,241.222 207.58,257.966 194.874,245.659 "/>
<polyline fill="#035D87" points="207.58,257.966 224.327,257.966 224.327,274.714 207.58,274.714 207.58,257.966 "/>
<polyline fill="#837E85" points="207.58,241.222 224.327,241.222 224.327,257.966 207.58,257.966 207.58,241.222 "/>
<polygon fill="#E7E2E6" points="207.58,241.222 194.874,228.915 211.621,228.915 224.327,241.222 "/>
<polygon fill="#616E76" points="360.637,206.267 360.254,171.002 346.869,161.53 347.246,196.335 "/>
<rect x="359.07" y="172.199" transform="matrix(0.0109 0.9999 -0.9999 0.0109 561.0618 -190.2688)" fill="#7F7C83" width="35.267" height="32.519"/>
<polygon fill="#E6E6E5" points="346.869,161.53 360.254,171.002 392.771,170.649 379.842,161.172 "/>
<polygon fill="#F3F3EF" points="324.241,208.004 323.856,172.74 310.472,163.267 310.851,198.072 "/>
<rect x="322.673" y="173.937" transform="matrix(0.0109 0.9999 -0.9999 0.0109 526.777 -152.166)" fill="#8F888F" width="35.266" height="32.517"/>
<polygon fill="#F0EEEF" points="310.472,163.267 323.856,172.74 356.371,172.386 343.445,162.91 "/>
<polygon fill="#F3F3EF" points="292.548,208.167 292.166,172.903 278.78,163.429 279.159,198.235 "/>
<rect x="290.982" y="174.099" transform="matrix(0.0108 0.9999 -0.9999 0.0108 495.6203 -120.2996)" fill="#8F888F" width="35.266" height="32.518"/>
<polygon fill="#F3F2EE" points="278.78,163.429 292.166,172.903 324.682,172.549 311.753,163.072 "/>
<polygon fill="#F3F3EF" points="260.721,208.622 260.339,173.359 246.953,163.887 247.331,198.692 "/>
<rect x="259.155" y="174.555" transform="matrix(0.0108 0.9999 -0.9999 0.0108 464.5934 -88.0235)" fill="#7F7C83" width="35.264" height="32.518"/>
<polygon fill="#E1DFE0" points="246.953,163.887 260.339,173.359 292.854,173.006 279.927,163.527 "/>
<polygon fill="#F3F3EF" points="225.534,208.583 225.534,173.316 212.254,163.699 212.254,198.507 "/>
<rect x="225.534" y="173.316" fill="#8F888F" width="32.519" height="35.267"/>
<polygon fill="#E4DFDB" points="212.254,163.699 225.534,173.316 258.053,173.316 245.229,163.699 "/>
<polygon fill="#6D0C1B" points="377.637,253.759 360.397,254.403 360.397,272.944 377.637,272.374 "/>
<polygon fill="#791120" points="249.671,258.538 249.671,276.595 269.735,275.933 269.735,257.786 "/>
<polygon fill="#791120" points="287.571,257.12 269.735,257.786 269.735,275.933 287.571,275.345 "/>
<polygon fill="#761119" points="304.812,256.478 287.571,257.12 287.571,275.345 304.812,274.776 "/>
<polygon fill="#751019" points="323.241,255.79 304.812,256.478 304.812,274.776 323.241,274.169 "/>
<polygon fill="#7B3446" points="340.778,255.136 323.241,255.79 323.241,274.169 340.778,273.591 "/>
<polygon fill="#792535" points="360.397,254.403 340.778,255.136 340.778,273.591 360.397,272.944 "/>
<polygon fill="#723635" points="396.662,253.048 377.637,253.759 377.637,272.374 396.662,271.749 "/>
<polygon fill="#831523" points="413.754,252.476 396.662,253.048 396.662,271.749 413.754,271.243 "/>
<polygon fill="#700D1B" points="413.754,194.854 396.662,195.315 396.662,214.708 413.754,214.151 "/>
<polygon fill="#831523" points="396.662,195.315 377.637,195.891 377.637,215.404 396.662,214.708 "/>
<polygon fill="#79111C" points="249.671,199.757 249.671,220.071 269.735,219.339 269.735,199.152 "/>
<polygon fill="#6C0C20" points="287.571,198.612 269.735,199.152 269.735,219.339 287.571,218.69 "/>
<polygon fill="#80142D" points="304.812,198.091 287.571,198.612 287.571,218.69 304.812,218.06 "/>
<polygon fill="#650A1D" points="323.241,197.535 304.812,198.091 304.812,218.06 323.241,217.389 "/>
<polygon fill="#791120" points="340.778,197.005 323.241,197.535 323.241,217.389 340.778,216.747 "/>
<polygon fill="#791120" points="360.397,196.412 340.778,197.005 340.778,216.747 360.397,216.031 "/>
<polygon fill="#741121" points="377.637,195.891 360.397,196.412 360.397,216.031 377.637,215.404 "/>
<polygon fill="#741121" points="323.241,217.389 304.812,218.06 304.812,237.858 323.241,237.159 "/>
<polygon fill="#701828" points="249.671,220.071 249.671,239.946 269.735,239.187 269.735,219.339 "/>
<polygon fill="#761119" points="287.571,218.69 269.735,219.339 269.735,239.187 287.571,238.511 "/>
<polygon fill="#751019" points="304.812,218.06 287.571,218.69 287.571,238.511 304.812,237.858 "/>
<polygon fill="#71202D" points="340.778,216.747 323.241,217.389 323.241,237.159 340.778,236.495 "/>
<polygon fill="#71202D" points="360.397,216.031 340.778,216.747 340.778,236.495 360.397,235.753 "/>
<polygon fill="#831523" points="377.637,215.404 360.397,216.031 360.397,235.753 377.637,235.099 "/>
<polygon fill="#700D1B" points="396.662,214.708 377.637,215.404 377.637,235.099 396.662,234.378 "/>
<polygon fill="#751B27" points="413.754,214.151 396.662,214.708 396.662,234.378 413.754,233.796 "/>
<polygon fill="#751321" points="413.754,233.796 396.662,234.378 396.662,253.048 413.754,252.476 "/>
<polygon fill="#77111A" points="340.778,236.495 323.241,237.159 323.241,255.79 340.778,255.136 "/>
<polygon fill="#891726" points="249.671,239.946 249.671,258.538 269.735,257.786 269.735,239.187 "/>
<polygon fill="#791120" points="287.571,238.511 269.735,239.187 269.735,257.786 287.571,257.12 "/>
<polygon fill="#701828" points="304.812,237.858 287.571,238.511 287.571,257.12 304.812,256.478 "/>
<polygon fill="#723635" points="323.241,237.159 304.812,237.858 304.812,256.478 323.241,255.79 "/>
<polygon fill="#831928" points="360.397,235.753 340.778,236.495 340.778,255.136 360.397,254.403 "/>
<polygon fill="#891726" points="377.637,235.099 360.397,235.753 360.397,254.403 377.637,253.759 "/>
<polygon fill="#730F21" points="396.662,234.378 377.637,235.099 377.637,253.759 396.662,253.048 "/>
<polygon fill="#E97679" points="249.671,199.757 413.754,194.854 392.652,181.332 233.476,185.296 "/>
<polygon fill="#EE293C" points="249.671,199.757 233.476,185.296 233.476,204.125 249.671,219.284 "/>
<polygon fill="#F15B65" points="233.476,204.125 233.476,224.575 249.671,239.38 249.671,219.284 "/>
<polygon fill="#EF454C" points="233.476,224.575 233.476,242.456 249.671,257.942 249.671,239.38 "/>
<polygon fill="#EE293D" points="233.476,242.456 233.476,260.571 249.671,276.595 249.671,257.942 "/>
<polygon fill="#6D0C1B" points="445.661,288.142 428.101,288.796 428.101,307.683 445.661,307.104 "/>
<polygon fill="#791120" points="315.313,293.007 315.313,311.401 335.752,310.728 335.752,292.243 "/>
<polygon fill="#791120" points="353.918,291.567 335.752,292.243 335.752,310.728 353.918,310.13 "/>
<polygon fill="#761119" points="371.478,290.911 353.918,291.567 353.918,310.13 371.478,309.55 "/>
<polygon fill="#751019" points="390.254,290.21 371.478,290.911 371.478,309.55 390.254,308.933 "/>
<polygon fill="#7B3446" points="408.117,289.542 390.254,290.21 390.254,308.933 408.117,308.343 "/>
<polygon fill="#792535" points="428.101,288.796 408.117,289.542 408.117,308.343 428.101,307.683 "/>
<polygon fill="#723635" points="465.042,287.417 445.661,288.142 445.661,307.104 465.042,306.466 "/>
<polygon fill="#831523" points="482.45,286.837 465.042,287.417 465.042,306.466 482.45,305.952 "/>
<polygon fill="#650A1D" points="482.45,228.138 465.042,228.61 465.042,248.362 482.45,247.794 "/>
<polygon fill="#831523" points="465.042,228.61 445.661,229.194 445.661,249.071 465.042,248.362 "/>
<polygon fill="#79111C" points="315.313,233.134 315.313,253.827 335.752,253.081 335.752,232.517 "/>
<polygon fill="#6C0C20" points="353.918,231.968 335.752,232.517 335.752,253.081 353.918,252.417 "/>
<polygon fill="#80142D" points="371.478,231.437 353.918,231.968 353.918,252.417 371.478,251.776 "/>
<polygon fill="#831523" points="390.254,230.87 371.478,231.437 371.478,251.776 390.254,251.093 "/>
<polygon fill="#6D0C1B" points="408.117,230.329 390.254,230.87 390.254,251.093 408.117,250.44 "/>
<polygon fill="#701828" points="428.101,229.724 408.117,230.329 408.117,250.44 428.101,249.71 "/>
<polygon fill="#741121" points="445.661,229.194 428.101,229.724 428.101,249.71 445.661,249.071 "/>
<polygon fill="#741121" points="390.254,251.093 371.478,251.776 371.478,271.944 390.254,271.233 "/>
<polygon fill="#722F38" points="315.313,253.827 315.313,274.071 335.752,273.296 335.752,253.081 "/>
<polygon fill="#761119" points="353.918,252.417 335.752,253.081 335.752,273.296 353.918,272.608 "/>
<polygon fill="#751019" points="371.478,251.776 353.918,252.417 353.918,272.608 371.478,271.944 "/>
<polygon fill="#71202D" points="408.117,250.44 390.254,251.093 390.254,271.233 408.117,270.556 "/>
<polygon fill="#71202D" points="428.101,249.71 408.117,250.44 408.117,270.556 428.101,269.798 "/>
<polygon fill="#831523" points="445.661,249.071 428.101,249.71 428.101,269.798 445.661,269.132 "/>
<polygon fill="#700D1B" points="465.042,248.362 445.661,249.071 445.661,269.132 465.042,268.397 "/>
<polygon fill="#751B27" points="482.45,247.794 465.042,248.362 465.042,268.397 482.45,267.806 "/>
<polygon fill="#751321" points="482.45,267.806 465.042,268.397 465.042,287.417 482.45,286.837 "/>
<polygon fill="#77111A" points="408.117,270.556 390.254,271.233 390.254,290.21 408.117,289.542 "/>
<polygon fill="#891726" points="315.313,274.071 315.313,293.007 335.752,292.243 335.752,273.296 "/>
<polygon fill="#791120" points="353.918,272.608 335.752,273.296 335.752,292.243 353.918,291.567 "/>
<polygon fill="#701828" points="371.478,271.944 353.918,272.608 353.918,291.567 371.478,290.911 "/>
<polygon fill="#723635" points="390.254,271.233 371.478,271.944 371.478,290.911 390.254,290.21 "/>
<polygon fill="#831928" points="428.101,269.798 408.117,270.556 408.117,289.542 428.101,288.796 "/>
<polygon fill="#891726" points="445.661,269.132 428.101,269.798 428.101,288.796 445.661,288.142 "/>
<polygon fill="#730F21" points="465.042,268.397 445.661,269.132 445.661,288.142 465.042,287.417 "/>
<polygon fill="#D24C5A" points="315.313,233.134 482.45,228.138 460.955,214.365 298.813,218.403 "/>
<polygon fill="#EE293C" points="315.313,233.134 298.813,218.403 298.813,237.581 315.313,253.022 "/>
<polygon fill="#EF464E" points="298.813,237.581 298.813,258.411 315.313,273.493 315.313,253.022 "/>
<polygon fill="#EF454C" points="298.813,258.411 298.813,276.626 315.313,292.405 315.313,273.493 "/>
<polygon fill="#EE293D" points="298.813,276.626 298.813,295.081 315.313,311.401 315.313,292.405 "/>
<polygon fill="#EE293D" points="273.995,278.214 288.666,292.427 288.666,311.761 273.995,297.55 "/>
<polygon fill="#1293D1" points="273.995,258.882 288.666,273.089 288.666,292.427 273.995,278.214 "/>
<polygon fill="#F04E5A" points="273.995,239.544 288.666,253.755 288.666,273.089 273.995,258.882 "/>
<polyline fill="#901926" points="288.666,292.427 308,292.427 308,311.761 288.666,311.761 288.666,292.427 "/>
<polyline fill="#035D87" points="288.666,273.089 308,273.089 308,292.427 288.666,292.427 288.666,273.089 "/>
<polyline fill="#981B21" points="288.666,253.755 308,253.755 308,273.089 288.666,273.089 288.666,253.755 "/>
<polygon fill="#F04B56" points="288.666,253.755 273.995,239.544 293.33,239.544 308,253.755 "/>
<polygon fill="#98988F" stroke="#00AEEF" stroke-width="0.3403" stroke-linecap="round" stroke-linejoin="round" stroke-miterlimit="10" points="
	250.462,280.72 264.017,293.845 264.017,311.71 250.462,298.581 "/>
<polygon fill="#D8D6D0" points="250.462,262.858 264.017,275.987 264.017,293.845 250.462,280.72 "/>
<polyline fill="#035D87" points="264.017,293.845 281.878,293.845 281.878,311.71 264.017,311.71 264.017,293.845 "/>
<polyline fill="#6F6D7C" points="264.017,275.987 281.878,275.987 281.878,293.845 264.017,293.845 264.017,275.987 "/>
<polygon fill="#CBC3C2" points="264.017,275.987 250.462,262.858 268.324,262.858 281.878,275.987 "/>
<polygon fill="#EE293D" points="212.992,261.987 226.545,275.112 226.545,292.976 212.992,279.847 "/>
<polygon fill="#B25E61" points="212.992,244.126 226.545,257.253 226.545,275.112 212.992,261.987 "/>
<polyline fill="#901926" points="226.545,275.112 244.405,275.112 244.405,292.976 226.545,292.976 226.545,275.112 "/>
<polyline fill="#59212C" points="226.545,257.253 244.405,257.253 244.405,275.112 226.545,275.112 226.545,257.253 "/>
<polygon fill="#B15D62" points="226.545,257.253 212.992,244.126 230.854,244.126 244.405,257.253 "/>
<polygon fill="#6C7386" points="232.999,281.12 246.553,294.245 246.553,312.106 232.999,298.979 "/>
<polyline fill="#2E303D" points="246.553,294.245 264.412,294.245 264.412,312.106 246.553,312.106 246.553,294.245 "/>
<polygon fill="#7B788E" points="246.553,294.245 232.999,281.12 250.86,281.12 264.412,294.245 "/>
<polygon fill="#17262C" points="491.828,298.013 491.828,318.673 277.696,327.597 277.696,305.995 "/>
<polygon fill="#435453" points="277.696,305.995 491.828,298.013 476.801,290.499 269.245,299.421 "/>
<polygon fill="#80857E" points="277.696,327.597 277.696,305.995 269.245,299.421 269.245,320.104 "/>
</svg>
